PathFileType	4	(X/Y/Z)	Walk8.trc
DataRate	CameraRate	NumFrames	NumMarkers	Units	OrigDataRate	OrigDataStartFrame	OrigNumFrames
200.000000	200.000000	4	59	mm	200.000000	787	1039
Frame#	Times		RFA1		LFHD		RFHD		RCAR		RWRR		RACR1		LMT1		RUA1		LTH3		LTB1		LLFC		LACR1		LTB2		LToe		LASI		LTB3		LElbow		LUA1		RASI		RLFC		CLAV		STRN		RTH3		LWRU		LFA1		RBack		RMT5		RMT1		LCAR		RCAL		LTH4		RTB2		RToe		RLMAL		LTH1		LBHD		LPSI		RPSI		RTH1		RTB1		RTH2		RTB4		RTB3		LTB4		C7		RElbowM		RBHD		LMT5		RElbow		RMMAL		LWRR		RTH4		LTH2		LLMAL		LMMAL		T10		RWRU		LCAL		LElbowM
			X1	Y1	Z1	X2	Y2	Z2	X3	Y3	Z3	X4	Y4	Z4	X5	Y5	Z5	X6	Y6	Z6	X7	Y7	Z7	X8	Y8	Z8	X9	Y9	Z9	X10	Y10	Z10	X11	Y11	Z11	X12	Y12	Z12	X13	Y13	Z13	X14	Y14	Z14	X15	Y15	Z15	X16	Y16	Z16	X17	Y17	Z17	X18	Y18	Z18	X19	Y19	Z19	X20	Y20	Z20	X21	Y21	Z21	X22	Y22	Z22	X23	Y23	Z23	X24	Y24	Z24	X25	Y25	Z25	X26	Y26	Z26	X27	Y27	Z27	X28	Y28	Z28	X29	Y29	Z29	X30	Y30	Z30	X31	Y31	Z31	X32	Y32	Z32	X33	Y33	Z33	X34	Y34	Z34	X35	Y35	Z35	X36	Y36	Z36	X37	Y37	Z37	X38	Y38	Z38	X39	Y39	Z39	X40	Y40	Z40	X41	Y41	Z41	X42	Y42	Z42	X43	Y43	Z43	X44	Y44	Z44	X45	Y45	Z45	X46	Y46	Z46	X47	Y47	Z47	X48	Y48	Z48	X49	Y49	Z49	X50	Y50	Z50	X51	Y51	Z51	X52	Y52	Z52	X53	Y53	Z53	X54	Y54	Z54	X55	Y55	Z55	X56	Y56	Z56	X57	Y57	Z57	X58	Y58	Z58	X59	Y59	Z59

787	3.935	-366.23	941.5	301.56	-184.53	1574.8	-64.597	-178.24	1574	32.823	-356.73	778.8	314.72	-388.79	838.3	332.84	-322.07	1371.4	160.8	-326.99	34.481	-35.104	-370.95	1231	247.84	-338.18	553.89	-159.85	-378.53	331.14	-43.964	-380.22	485.18	-148.9	-280.39	1347.5	-192.87	-393.19	250.59	-111.33	-281.73	29.898	-38.338	-234.45	950.22	-182.71	-409.03	162.46	-52.061	-295.36	1061.1	-323.72	-271.2	1204.7	-272.84	-253.49	959.41	177.35	-220.52	476.17	198.4	-233.76	1327.7	-10.61	-178.2	1207	9.6492	-239.37	564.45	205.21	-171.86	848.82	-356.22	-200.08	962.47	-325.2	-458.18	1315.8	73.469	-117.6	44.994	202.78	-90.432	59.795	123	-122.09	818.43	-339.14	-277.68	39.326	125.09	-313.98	633.9	-186.76	-196.14	291.5	188.98	-52.554	63.733	140.64	-235.27	78.813	179.52	-286.41	709.64	-213.73	-336.29	1550	-83.206	-475.62	980.17	-108.45	-496.05	976.36	24.059	-276.55	730.17	233.19	-154.32	368.96	130.71	-206.51	664.83	202.2	-172.79	284.54	131.6	-180.63	200.69	133.6	-396.53	247.77	-49.999	-389.77	1413.1	-17.071	-457.4	1057.7	199.43	-347.8	1560	52.355	-345.72	25.342	-125.38	-425.13	1072.7	284.96	-203.1	92.267	100.37	-149.52	856.25	-285.19	-262.59	647.4	216.76	-265.79	629.18	-151.73	-460.04	70.525	-112.89	-451.44	74.197	-27.988	-457.69	1085.1	-27.42	-352.77	834.52	267.87	-517.17	31.703	-71.345	-331.15	1017.3	-231.06
788	3.94	-362.16	941.06	302.07	-180.22	1574.2	-63.982	-173.98	1573.4	33.424	-352.69	778.37	315.29	-384.75	837.86	333.39	-317.97	1370.9	161.32	-326.97	34.495	-35.151	-366.65	1230.5	248.33	-335.84	553.65	-159.58	-377.15	331.01	-43.845	-378.23	485.15	-148.65	-276.09	1347.1	-192.23	-392.27	250.58	-111.26	-281.68	29.848	-38.36	-229.96	950.2	-182.89	-408.45	162.45	-52.065	-289.1	1060.8	-323.31	-265.64	1204.4	-271.96	-249.1	958.74	177.61	-216.19	475.29	198.14	-229.62	1327.3	-10.157	-174.02	1206.6	9.7758	-235.34	563.65	205.19	-163.35	849.8	-354.81	-192.92	963.17	-324.12	-454.05	1315.3	73.98	-100.09	46.941	204.18	-73.831	62.216	124.2	-113.37	819.94	-337.37	-260.45	36.654	127.54	-311.36	633.55	-186.56	-186.02	291.5	189.43	-36.006	67.369	141.55	-218.8	77.478	181.55	-283.5	709.14	-213.59	-331.97	1549.5	-82.68	-471.77	979.58	-107.51	-491.76	975.64	25.038	-272.14	729.36	233.51	-147.11	369.77	130.38	-202.31	663.89	201.91	-163.01	284.85	132	-168.16	200.77	134.55	-395.52	247.7	-49.95	-385.63	1412.6	-16.556	-453.35	1057.3	200	-343.55	1559.5	52.877	-345.72	25.295	-125.42	-421.01	1072.3	285.51	-187.47	91.489	102.13	-141.61	857.48	-283.56	-258.31	646.62	216.88	-263.11	628.63	-151.65	-459.89	70.761	-112.92	-451.23	74.41	-27.993	-453.65	1084.6	-26.663	-348.81	833.98	268.36	-517.13	32.024	-71.396	-325.18	1016.9	-230.94
789	3.945	-358.06	940.6	302.6	-175.91	1573.6	-63.334	-169.73	1572.8	34.058	-348.62	777.92	315.88	-380.68	837.39	333.96	-313.88	1370.4	161.86	-326.95	34.51	-35.2	-362.36	1229.9	248.86	-333.52	553.43	-159.32	-375.73	330.88	-43.731	-376.24	485.13	-148.39	-271.83	1346.8	-191.56	-391.33	250.59	-111.2	-281.63	29.798	-38.385	-225.39	950.22	-183.1	-407.86	162.46	-52.078	-282.85	1060.7	-322.84	-260.1	1204.1	-271.02	-244.69	958.05	177.87	-211.92	474.34	197.88	-225.49	1326.8	-9.692	-169.81	1206.2	9.869	-231.42	562.74	205.21	-154.94	850.79	-353.35	-185.84	963.9	-322.98	-449.92	1314.8	74.537	-82.882	49.143	205.43	-57.578	64.874	125.24	-104.75	821.47	-335.57	-243.43	34.314	129.94	-308.75	633.22	-186.37	-176.03	291.63	189.81	-19.824	71.215	142.25	-202.55	76.45	183.49	-280.6	708.64	-213.47	-327.67	1549.1	-82.117	-467.89	978.97	-106.55	-487.43	974.9	26.036	-267.76	728.47	233.84	-140.03	370.59	129.97	-198.19	662.83	201.65	-153.39	285.26	132.31	-155.91	201.03	135.4	-394.49	247.64	-49.903	-381.52	1412	-16.002	-449.28	1056.8	200.59	-339.3	1559	53.435	-345.72	25.247	-125.47	-416.88	1071.8	286.09	-172.1	90.993	103.79	-133.77	858.73	-281.9	-254.11	645.75	217.03	-260.44	628.09	-151.62	-459.75	71.019	-112.94	-451.01	74.637	-27.998	-449.61	1084	-25.862	-344.81	833.43	268.86	-517.1	32.383	-71.448	-319.25	1016.4	-230.77
790	3.95	-353.93	940.13	303.14	-171.62	1573	-62.654	-165.48	1572.2	34.724	-344.51	777.45	316.48	-376.57	836.91	334.55	-309.78	1369.9	162.43	-326.92	34.525	-35.251	-358.08	1229.4	249.44	-331.2	553.22	-159.08	-374.27	330.75	-43.621	-374.24	485.13	-148.11	-267.61	1346.4	-190.86	-390.37	250.61	-111.15	-281.59	29.747	-38.414	-220.76	950.28	-183.31	-407.23	162.48	-52.098	-276.63	1060.5	-322.31	-254.58	1203.8	-270.02	-240.24	957.34	178.14	-207.7	473.34	197.64	-221.37	1326.3	-9.2137	-165.58	1205.7	9.938	-227.59	561.74	205.26	-146.63	851.8	-351.85	-178.82	964.63	-321.8	-445.79	1314.2	75.14	-66.025	51.572	206.53	-41.714	67.735	126.11	-96.238	823	-333.73	-226.69	32.293	132.27	-306.16	632.9	-186.2	-166.17	291.86	190.14	-4.0515	75.229	142.79	-186.58	75.72	185.34	-277.71	708.14	-213.38	-323.37	1548.6	-81.518	-463.97	978.36	-105.58	-483.06	974.16	27.049	-263.41	727.5	234.18	-133.07	371.41	129.46	-194.13	661.67	201.42	-143.96	285.75	132.53	-143.9	201.46	136.17	-393.42	247.58	-49.856	-377.42	1411.5	-15.408	-445.19	1056.4	201.21	-335.05	1558.5	54.029	-345.72	25.2	-125.52	-412.73	1071.3	286.69	-157.03	90.765	105.36	-126.02	859.99	-280.22	-249.98	644.79	217.21	-257.77	627.56	-151.63	-459.59	71.301	-112.96	-450.78	74.879	-28	-445.55	1083.4	-25.019	-340.77	832.87	269.38	-517.05	32.781	-71.497	-313.38	1016	-230.55
